<mxfile host="app.diagrams.net" modified="2022-03-08T07:43:45.989Z" agent="5.0 (Windows)" etag="bKved4DMwsmItcnD9Wo2" version="16.6.7" type="github">
  <diagram id="_90TAW9kgXpykgzeO6-O" name="Page-1">
    <mxGraphModel dx="1185" dy="627" grid="1" gridSize="10" guides="1" tooltips="1" connect="1" arrows="1" fold="1" page="1" pageScale="1" pageWidth="827" pageHeight="1169" math="0" shadow="0">
      <root>
        <mxCell id="0" />
        <mxCell id="1" parent="0" />
        <mxCell id="bqfkYzIaO7EderX8TfR4-1" value="&lt;font style=&quot;font-size: 24px&quot;&gt;摘要：全文概括&lt;/font&gt;" style="rounded=1;whiteSpace=wrap;html=1;" vertex="1" parent="1">
          <mxGeometry x="280" y="120" width="320" height="50" as="geometry" />
        </mxCell>
        <mxCell id="bqfkYzIaO7EderX8TfR4-3" value="" style="rounded=0;whiteSpace=wrap;html=1;fontSize=24;" vertex="1" parent="1">
          <mxGeometry x="120" y="200" width="650" height="200" as="geometry" />
        </mxCell>
        <mxCell id="bqfkYzIaO7EderX8TfR4-4" value="&lt;div style=&quot;font-size: 18px&quot; align=&quot;center&quot;&gt;&lt;font style=&quot;font-size: 18px&quot;&gt;第一章&lt;/font&gt;&lt;/div&gt;&lt;div style=&quot;font-size: 18px&quot; align=&quot;center&quot;&gt;&lt;font style=&quot;font-size: 18px&quot;&gt;&lt;br&gt;&lt;/font&gt;&lt;/div&gt;&lt;div style=&quot;font-size: 18px&quot; align=&quot;center&quot;&gt;&lt;font style=&quot;font-size: 18px&quot;&gt;背景、目的、意义&lt;/font&gt;&lt;font style=&quot;font-size: 18px&quot;&gt;&lt;br&gt;&lt;/font&gt;&lt;/div&gt;" style="whiteSpace=wrap;html=1;aspect=fixed;fontSize=24;align=center;" vertex="1" parent="1">
          <mxGeometry x="155" y="250" width="100" height="100" as="geometry" />
        </mxCell>
        <mxCell id="bqfkYzIaO7EderX8TfR4-5" value="&lt;div style=&quot;font-size: 18px&quot; align=&quot;center&quot;&gt;&lt;font style=&quot;font-size: 18px&quot;&gt;第二章&lt;/font&gt;&lt;/div&gt;&lt;div style=&quot;font-size: 18px&quot; align=&quot;center&quot;&gt;&lt;font style=&quot;font-size: 18px&quot;&gt;&lt;br&gt;&lt;/font&gt;&lt;/div&gt;&lt;div style=&quot;font-size: 18px&quot; align=&quot;center&quot;&gt;可行性&lt;/div&gt;&lt;div style=&quot;font-size: 18px&quot; align=&quot;center&quot;&gt;分析&lt;font style=&quot;font-size: 18px&quot;&gt;&lt;br&gt;&lt;/font&gt;&lt;/div&gt;" style="whiteSpace=wrap;html=1;aspect=fixed;fontSize=24;align=center;" vertex="1" parent="1">
          <mxGeometry x="275" y="250" width="100" height="100" as="geometry" />
        </mxCell>
        <mxCell id="bqfkYzIaO7EderX8TfR4-6" value="&lt;div style=&quot;font-size: 18px&quot; align=&quot;center&quot;&gt;&lt;font style=&quot;font-size: 18px&quot;&gt;第三章&lt;/font&gt;&lt;/div&gt;&lt;div style=&quot;font-size: 18px&quot; align=&quot;center&quot;&gt;&lt;font style=&quot;font-size: 18px&quot;&gt;&lt;br&gt;&lt;/font&gt;&lt;/div&gt;&lt;div style=&quot;font-size: 18px&quot; align=&quot;center&quot;&gt;需求&lt;/div&gt;&lt;div style=&quot;font-size: 18px&quot; align=&quot;center&quot;&gt;分析&lt;font style=&quot;font-size: 18px&quot;&gt;&lt;br&gt;&lt;/font&gt;&lt;/div&gt;" style="whiteSpace=wrap;html=1;aspect=fixed;fontSize=24;align=center;" vertex="1" parent="1">
          <mxGeometry x="395" y="250" width="100" height="100" as="geometry" />
        </mxCell>
        <mxCell id="bqfkYzIaO7EderX8TfR4-7" value="&lt;div style=&quot;font-size: 18px&quot; align=&quot;center&quot;&gt;&lt;font style=&quot;font-size: 18px&quot;&gt;第四章&lt;/font&gt;&lt;/div&gt;&lt;div style=&quot;font-size: 18px&quot; align=&quot;center&quot;&gt;&lt;font style=&quot;font-size: 18px&quot;&gt;&lt;br&gt;&lt;/font&gt;&lt;/div&gt;&lt;div style=&quot;font-size: 18px&quot; align=&quot;center&quot;&gt;概要&lt;/div&gt;&lt;div style=&quot;font-size: 18px&quot; align=&quot;center&quot;&gt;设计&lt;font style=&quot;font-size: 18px&quot;&gt;&lt;br&gt;&lt;/font&gt;&lt;/div&gt;" style="whiteSpace=wrap;html=1;aspect=fixed;fontSize=24;align=center;" vertex="1" parent="1">
          <mxGeometry x="515" y="250" width="100" height="100" as="geometry" />
        </mxCell>
        <mxCell id="bqfkYzIaO7EderX8TfR4-8" value="&lt;div style=&quot;font-size: 18px&quot; align=&quot;center&quot;&gt;&lt;font style=&quot;font-size: 18px&quot;&gt;第四章&lt;/font&gt;&lt;/div&gt;&lt;div style=&quot;font-size: 18px&quot; align=&quot;center&quot;&gt;&lt;font style=&quot;font-size: 18px&quot;&gt;&lt;br&gt;&lt;/font&gt;&lt;/div&gt;&lt;div style=&quot;font-size: 18px&quot; align=&quot;center&quot;&gt;系统&lt;/div&gt;&lt;div style=&quot;font-size: 18px&quot; align=&quot;center&quot;&gt;详细设计&lt;br&gt;&lt;/div&gt;" style="whiteSpace=wrap;html=1;aspect=fixed;fontSize=24;align=center;" vertex="1" parent="1">
          <mxGeometry x="635" y="250" width="100" height="100" as="geometry" />
        </mxCell>
        <mxCell id="bqfkYzIaO7EderX8TfR4-10" value="&lt;font style=&quot;font-size: 24px&quot;&gt;第六章：总结与展望&lt;/font&gt;" style="rounded=1;whiteSpace=wrap;html=1;" vertex="1" parent="1">
          <mxGeometry x="280" y="440" width="320" height="50" as="geometry" />
        </mxCell>
        <mxCell id="bqfkYzIaO7EderX8TfR4-11" value="" style="endArrow=classic;html=1;rounded=0;fontSize=18;exitX=0.483;exitY=1.01;exitDx=0;exitDy=0;exitPerimeter=0;entryX=0.481;entryY=0.02;entryDx=0;entryDy=0;entryPerimeter=0;" edge="1" parent="1" source="bqfkYzIaO7EderX8TfR4-3" target="bqfkYzIaO7EderX8TfR4-10">
          <mxGeometry width="50" height="50" relative="1" as="geometry">
            <mxPoint x="390" y="440" as="sourcePoint" />
            <mxPoint x="460" y="420" as="targetPoint" />
          </mxGeometry>
        </mxCell>
        <mxCell id="bqfkYzIaO7EderX8TfR4-12" value="" style="endArrow=classic;html=1;rounded=0;fontSize=18;exitX=0.483;exitY=1.01;exitDx=0;exitDy=0;exitPerimeter=0;entryX=0.477;entryY=0;entryDx=0;entryDy=0;entryPerimeter=0;" edge="1" parent="1" target="bqfkYzIaO7EderX8TfR4-3">
          <mxGeometry width="50" height="50" relative="1" as="geometry">
            <mxPoint x="430.03000000000003" y="170" as="sourcePoint" />
            <mxPoint x="430.00000000000006" y="209" as="targetPoint" />
          </mxGeometry>
        </mxCell>
        <mxCell id="bqfkYzIaO7EderX8TfR4-13" value="&lt;font style=&quot;font-size: 23px&quot;&gt;前台&lt;/font&gt;" style="rounded=0;whiteSpace=wrap;html=1;fontSize=18;" vertex="1" parent="1">
          <mxGeometry x="280" y="660" width="120" height="60" as="geometry" />
        </mxCell>
        <mxCell id="bqfkYzIaO7EderX8TfR4-14" value="&lt;div&gt;首&lt;/div&gt;&lt;div&gt;页&lt;/div&gt;" style="rounded=0;whiteSpace=wrap;html=1;fontSize=23;" vertex="1" parent="1">
          <mxGeometry x="160" y="800" width="40" height="160" as="geometry" />
        </mxCell>
        <mxCell id="bqfkYzIaO7EderX8TfR4-15" value="招领信息" style="rounded=0;whiteSpace=wrap;html=1;fontSize=23;" vertex="1" parent="1">
          <mxGeometry x="320" y="800" width="40" height="160" as="geometry" />
        </mxCell>
        <mxCell id="bqfkYzIaO7EderX8TfR4-16" value="校园美景" style="rounded=0;whiteSpace=wrap;html=1;fontSize=23;" vertex="1" parent="1">
          <mxGeometry x="240" y="800" width="40" height="160" as="geometry" />
        </mxCell>
        <mxCell id="bqfkYzIaO7EderX8TfR4-17" value="寻物信息" style="rounded=0;whiteSpace=wrap;html=1;fontSize=23;" vertex="1" parent="1">
          <mxGeometry x="400" y="800" width="40" height="160" as="geometry" />
        </mxCell>
        <mxCell id="bqfkYzIaO7EderX8TfR4-18" value="社团活动" style="rounded=0;whiteSpace=wrap;html=1;fontSize=23;" vertex="1" parent="1">
          <mxGeometry x="480" y="800" width="40" height="160" as="geometry" />
        </mxCell>
        <mxCell id="bqfkYzIaO7EderX8TfR4-19" value="互动中心" style="rounded=0;whiteSpace=wrap;html=1;fontSize=23;" vertex="1" parent="1">
          <mxGeometry x="560" y="800" width="40" height="160" as="geometry" />
        </mxCell>
        <mxCell id="bqfkYzIaO7EderX8TfR4-20" value="" style="endArrow=none;html=1;rounded=0;fontSize=23;" edge="1" parent="1">
          <mxGeometry width="50" height="50" relative="1" as="geometry">
            <mxPoint x="100" y="760" as="sourcePoint" />
            <mxPoint x="580" y="760" as="targetPoint" />
          </mxGeometry>
        </mxCell>
        <mxCell id="bqfkYzIaO7EderX8TfR4-21" value="" style="endArrow=none;html=1;rounded=0;fontSize=23;exitX=0.5;exitY=1;exitDx=0;exitDy=0;" edge="1" parent="1" source="bqfkYzIaO7EderX8TfR4-13">
          <mxGeometry width="50" height="50" relative="1" as="geometry">
            <mxPoint x="400" y="730" as="sourcePoint" />
            <mxPoint x="340" y="760" as="targetPoint" />
          </mxGeometry>
        </mxCell>
        <mxCell id="bqfkYzIaO7EderX8TfR4-22" value="" style="endArrow=none;html=1;rounded=0;fontSize=23;exitX=0.5;exitY=1;exitDx=0;exitDy=0;entryX=0.5;entryY=0;entryDx=0;entryDy=0;" edge="1" parent="1" target="bqfkYzIaO7EderX8TfR4-14">
          <mxGeometry width="50" height="50" relative="1" as="geometry">
            <mxPoint x="179.58" y="760" as="sourcePoint" />
            <mxPoint x="179.58" y="790" as="targetPoint" />
          </mxGeometry>
        </mxCell>
        <mxCell id="bqfkYzIaO7EderX8TfR4-23" value="" style="endArrow=none;html=1;rounded=0;fontSize=23;exitX=0.5;exitY=1;exitDx=0;exitDy=0;entryX=0.5;entryY=0;entryDx=0;entryDy=0;" edge="1" parent="1">
          <mxGeometry width="50" height="50" relative="1" as="geometry">
            <mxPoint x="259.5799999999999" y="760" as="sourcePoint" />
            <mxPoint x="260" y="800" as="targetPoint" />
          </mxGeometry>
        </mxCell>
        <mxCell id="bqfkYzIaO7EderX8TfR4-24" value="" style="endArrow=none;html=1;rounded=0;fontSize=23;exitX=0.5;exitY=1;exitDx=0;exitDy=0;entryX=0.5;entryY=0;entryDx=0;entryDy=0;" edge="1" parent="1">
          <mxGeometry width="50" height="50" relative="1" as="geometry">
            <mxPoint x="339.5799999999999" y="760" as="sourcePoint" />
            <mxPoint x="340" y="800" as="targetPoint" />
          </mxGeometry>
        </mxCell>
        <mxCell id="bqfkYzIaO7EderX8TfR4-25" value="" style="endArrow=none;html=1;rounded=0;fontSize=23;exitX=0.5;exitY=1;exitDx=0;exitDy=0;entryX=0.5;entryY=0;entryDx=0;entryDy=0;" edge="1" parent="1">
          <mxGeometry width="50" height="50" relative="1" as="geometry">
            <mxPoint x="419.5799999999999" y="760" as="sourcePoint" />
            <mxPoint x="420" y="800" as="targetPoint" />
            <Array as="points">
              <mxPoint x="420" y="780" />
            </Array>
          </mxGeometry>
        </mxCell>
        <mxCell id="bqfkYzIaO7EderX8TfR4-26" value="" style="endArrow=none;html=1;rounded=0;fontSize=23;exitX=0.5;exitY=1;exitDx=0;exitDy=0;entryX=0.5;entryY=0;entryDx=0;entryDy=0;" edge="1" parent="1">
          <mxGeometry width="50" height="50" relative="1" as="geometry">
            <mxPoint x="499.5799999999999" y="760" as="sourcePoint" />
            <mxPoint x="500" y="800" as="targetPoint" />
          </mxGeometry>
        </mxCell>
        <mxCell id="bqfkYzIaO7EderX8TfR4-27" value="" style="endArrow=none;html=1;rounded=0;fontSize=23;exitX=0.5;exitY=1;exitDx=0;exitDy=0;entryX=0.5;entryY=0;entryDx=0;entryDy=0;" edge="1" parent="1">
          <mxGeometry width="50" height="50" relative="1" as="geometry">
            <mxPoint x="579.5799999999999" y="760" as="sourcePoint" />
            <mxPoint x="580" y="800" as="targetPoint" />
          </mxGeometry>
        </mxCell>
        <mxCell id="bqfkYzIaO7EderX8TfR4-28" value="登录注册" style="rounded=0;whiteSpace=wrap;html=1;fontSize=23;" vertex="1" parent="1">
          <mxGeometry x="80" y="800" width="40" height="160" as="geometry" />
        </mxCell>
        <mxCell id="bqfkYzIaO7EderX8TfR4-29" value="" style="endArrow=none;html=1;rounded=0;fontSize=23;exitX=0.5;exitY=1;exitDx=0;exitDy=0;entryX=0.5;entryY=0;entryDx=0;entryDy=0;" edge="1" parent="1">
          <mxGeometry width="50" height="50" relative="1" as="geometry">
            <mxPoint x="99.57999999999993" y="760" as="sourcePoint" />
            <mxPoint x="100" y="800" as="targetPoint" />
          </mxGeometry>
        </mxCell>
        <mxCell id="bqfkYzIaO7EderX8TfR4-30" value="&lt;font style=&quot;font-size: 23px&quot;&gt;后台&lt;/font&gt;" style="rounded=0;whiteSpace=wrap;html=1;fontSize=18;" vertex="1" parent="1">
          <mxGeometry x="340" y="1040" width="120" height="60" as="geometry" />
        </mxCell>
        <mxCell id="bqfkYzIaO7EderX8TfR4-31" value="&lt;span&gt;&lt;font face=&quot;宋体&quot;&gt;用户管理&lt;/font&gt;&lt;/span&gt;" style="rounded=0;whiteSpace=wrap;html=1;fontSize=23;" vertex="1" parent="1">
          <mxGeometry x="220" y="1180" width="40" height="160" as="geometry" />
        </mxCell>
        <mxCell id="bqfkYzIaO7EderX8TfR4-32" value="&lt;span&gt;&lt;font face=&quot;宋体&quot;&gt;招领管理&lt;/font&gt;&lt;/span&gt;" style="rounded=0;whiteSpace=wrap;html=1;fontSize=23;" vertex="1" parent="1">
          <mxGeometry x="380" y="1180" width="40" height="160" as="geometry" />
        </mxCell>
        <mxCell id="bqfkYzIaO7EderX8TfR4-33" value="&lt;span&gt;&lt;font face=&quot;宋体&quot;&gt;失物管理&lt;/font&gt;&lt;/span&gt;" style="rounded=0;whiteSpace=wrap;html=1;fontSize=23;" vertex="1" parent="1">
          <mxGeometry x="300" y="1180" width="40" height="160" as="geometry" />
        </mxCell>
        <mxCell id="bqfkYzIaO7EderX8TfR4-34" value="&lt;span&gt;&lt;font face=&quot;宋体&quot;&gt;帖子管理&lt;/font&gt;&lt;/span&gt;" style="rounded=0;whiteSpace=wrap;html=1;fontSize=23;" vertex="1" parent="1">
          <mxGeometry x="460" y="1180" width="40" height="160" as="geometry" />
        </mxCell>
        <mxCell id="bqfkYzIaO7EderX8TfR4-35" value="&lt;span&gt;&lt;font face=&quot;宋体&quot;&gt;新鲜事管理&lt;/font&gt;&lt;/span&gt;" style="rounded=0;whiteSpace=wrap;html=1;fontSize=23;" vertex="1" parent="1">
          <mxGeometry x="540" y="1180" width="40" height="160" as="geometry" />
        </mxCell>
        <mxCell id="bqfkYzIaO7EderX8TfR4-36" value="&lt;span&gt;&lt;font face=&quot;宋体&quot;&gt;新闻管理&lt;/font&gt;&lt;/span&gt;" style="rounded=0;whiteSpace=wrap;html=1;fontSize=23;" vertex="1" parent="1">
          <mxGeometry x="620" y="1180" width="40" height="160" as="geometry" />
        </mxCell>
        <mxCell id="bqfkYzIaO7EderX8TfR4-37" value="" style="endArrow=none;html=1;rounded=0;fontSize=23;" edge="1" parent="1">
          <mxGeometry width="50" height="50" relative="1" as="geometry">
            <mxPoint x="160" y="1140" as="sourcePoint" />
            <mxPoint x="640" y="1140" as="targetPoint" />
          </mxGeometry>
        </mxCell>
        <mxCell id="bqfkYzIaO7EderX8TfR4-38" value="" style="endArrow=none;html=1;rounded=0;fontSize=23;exitX=0.5;exitY=1;exitDx=0;exitDy=0;" edge="1" parent="1" source="bqfkYzIaO7EderX8TfR4-30">
          <mxGeometry width="50" height="50" relative="1" as="geometry">
            <mxPoint x="460" y="1110" as="sourcePoint" />
            <mxPoint x="400" y="1140" as="targetPoint" />
          </mxGeometry>
        </mxCell>
        <mxCell id="bqfkYzIaO7EderX8TfR4-39" value="" style="endArrow=none;html=1;rounded=0;fontSize=23;exitX=0.5;exitY=1;exitDx=0;exitDy=0;entryX=0.5;entryY=0;entryDx=0;entryDy=0;" edge="1" parent="1" target="bqfkYzIaO7EderX8TfR4-31">
          <mxGeometry width="50" height="50" relative="1" as="geometry">
            <mxPoint x="239.57999999999993" y="1140" as="sourcePoint" />
            <mxPoint x="239.58" y="1170" as="targetPoint" />
          </mxGeometry>
        </mxCell>
        <mxCell id="bqfkYzIaO7EderX8TfR4-40" value="" style="endArrow=none;html=1;rounded=0;fontSize=23;exitX=0.5;exitY=1;exitDx=0;exitDy=0;entryX=0.5;entryY=0;entryDx=0;entryDy=0;" edge="1" parent="1">
          <mxGeometry width="50" height="50" relative="1" as="geometry">
            <mxPoint x="319.5799999999999" y="1140" as="sourcePoint" />
            <mxPoint x="320" y="1180" as="targetPoint" />
          </mxGeometry>
        </mxCell>
        <mxCell id="bqfkYzIaO7EderX8TfR4-41" value="" style="endArrow=none;html=1;rounded=0;fontSize=23;exitX=0.5;exitY=1;exitDx=0;exitDy=0;entryX=0.5;entryY=0;entryDx=0;entryDy=0;" edge="1" parent="1">
          <mxGeometry width="50" height="50" relative="1" as="geometry">
            <mxPoint x="399.5799999999999" y="1140" as="sourcePoint" />
            <mxPoint x="400" y="1180" as="targetPoint" />
          </mxGeometry>
        </mxCell>
        <mxCell id="bqfkYzIaO7EderX8TfR4-42" value="" style="endArrow=none;html=1;rounded=0;fontSize=23;exitX=0.5;exitY=1;exitDx=0;exitDy=0;entryX=0.5;entryY=0;entryDx=0;entryDy=0;" edge="1" parent="1">
          <mxGeometry width="50" height="50" relative="1" as="geometry">
            <mxPoint x="479.5799999999999" y="1140" as="sourcePoint" />
            <mxPoint x="480" y="1180" as="targetPoint" />
            <Array as="points">
              <mxPoint x="480" y="1160" />
            </Array>
          </mxGeometry>
        </mxCell>
        <mxCell id="bqfkYzIaO7EderX8TfR4-43" value="" style="endArrow=none;html=1;rounded=0;fontSize=23;exitX=0.5;exitY=1;exitDx=0;exitDy=0;entryX=0.5;entryY=0;entryDx=0;entryDy=0;" edge="1" parent="1">
          <mxGeometry width="50" height="50" relative="1" as="geometry">
            <mxPoint x="559.5799999999999" y="1140" as="sourcePoint" />
            <mxPoint x="560" y="1180" as="targetPoint" />
          </mxGeometry>
        </mxCell>
        <mxCell id="bqfkYzIaO7EderX8TfR4-44" value="" style="endArrow=none;html=1;rounded=0;fontSize=23;exitX=0.5;exitY=1;exitDx=0;exitDy=0;entryX=0.5;entryY=0;entryDx=0;entryDy=0;" edge="1" parent="1">
          <mxGeometry width="50" height="50" relative="1" as="geometry">
            <mxPoint x="639.5799999999997" y="1140" as="sourcePoint" />
            <mxPoint x="640" y="1180" as="targetPoint" />
          </mxGeometry>
        </mxCell>
        <mxCell id="bqfkYzIaO7EderX8TfR4-45" value="&lt;span&gt;&lt;font face=&quot;宋体&quot;&gt;系统管理&lt;/font&gt;&lt;/span&gt;" style="rounded=0;whiteSpace=wrap;html=1;fontSize=23;" vertex="1" parent="1">
          <mxGeometry x="140" y="1180" width="40" height="160" as="geometry" />
        </mxCell>
        <mxCell id="bqfkYzIaO7EderX8TfR4-46" value="" style="endArrow=none;html=1;rounded=0;fontSize=23;exitX=0.5;exitY=1;exitDx=0;exitDy=0;entryX=0.5;entryY=0;entryDx=0;entryDy=0;" edge="1" parent="1">
          <mxGeometry width="50" height="50" relative="1" as="geometry">
            <mxPoint x="159.57999999999993" y="1140" as="sourcePoint" />
            <mxPoint x="160" y="1180" as="targetPoint" />
          </mxGeometry>
        </mxCell>
        <mxCell id="bqfkYzIaO7EderX8TfR4-47" value="&lt;p&gt;&lt;span&gt;&lt;font face=&quot;宋体&quot;&gt;系统管理模块、用户管理模块、&lt;/font&gt;&lt;/span&gt;&lt;/p&gt;&lt;p&gt;&lt;span&gt;&lt;font face=&quot;宋体&quot;&gt;失物管理模块、招领管理模块、&lt;/font&gt;&lt;/span&gt;&lt;/p&gt;&lt;p&gt;&lt;span&gt;&lt;font face=&quot;宋体&quot;&gt;帖子管理模块、新鲜事管理模块、&lt;/font&gt;&lt;/span&gt;&lt;/p&gt;&lt;p&gt;&lt;span&gt;&lt;font face=&quot;宋体&quot;&gt;轮播新闻管理模块。&lt;/font&gt;&lt;/span&gt;&lt;/p&gt;" style="text;html=1;align=center;verticalAlign=middle;resizable=0;points=[];autosize=1;strokeColor=none;fillColor=none;fontSize=23;" vertex="1" parent="1">
          <mxGeometry x="220" y="1420" width="360" height="230" as="geometry" />
        </mxCell>
      </root>
    </mxGraphModel>
  </diagram>
</mxfile>
